# xmcd CD database file
#
# Track frame offsets:
#	150
#	27125
#	56585
#	71362
#
# Disc length: 1205 seconds
#
# Revision: 0
# Processed by: cddbd v1.5PL3 Copyright (c) Steve Scherf et al.
# Submitted via: CDex 1.40Release
#
DISCID=2b04b304
DTITLE=Aco - Spleen
DYEAR=2000
DGENRE=R&B
TTITLE0=Spleen (Y.Sunahara's Studio Remix)
TTITLE1=悦びに咲く花 (Silent Poets Remix/S.W.E Dub Ver.00)
TTITLE2=悦びに咲く花 (Piano Instrumental)
TTITLE3=夏の陽 (Heaven Mix/Instrumental)
EXTD=YEAR: 2000 ID3G: 14
EXTT0=
EXTT1=
EXTT2=
EXTT3=
PLAYORDER=
